<?xml version="1.0" encoding="UTF-8" standalone="no"?>
<!DOCTYPE svg PUBLIC "-//W3C//DTD SVG 1.1//EN" "http://www.w3.org/Graphics/SVG/1.1/DTD/svg11.dtd">
<svg width="100%" height="100%" viewBox="0 0 256 256" version="1.1" xmlns="http://www.w3.org/2000/svg" xmlns:xlink="http://www.w3.org/1999/xlink" xml:space="preserve" xmlns:serif="http://www.serif.com/" style="fill-rule:evenodd;clip-rule:evenodd;stroke-linejoin:round;stroke-miterlimit:2;">
    <g transform="matrix(1,0,0,1,21.4908,-2.12813)">
        <g transform="matrix(1.01587,0,0,1.01587,-299.84,-479.396)">
            <path d="M379,506L421,506L421,494C421,487.373 415.627,482 409,482L391,482C384.373,482 379,487.373 379,494L379,506ZM427,512L373,512L373,492C373,483.163 380.163,476 389,476L411,476C419.837,476 427,483.163 427,492L427,512Z" style="fill:rgb(64,209,217);fill-rule:nonzero;"/>
        </g>
        <g transform="matrix(1.01587,0,0,1.01587,-299.84,-479.396)">
            <path d="M450,726L350,726C336.745,726 326,715.255 326,702L326,524C326,514.06 334.059,506 344,506L456,506C465.941,506 474,514.06 474,524L474,702C474,715.255 463.255,726 450,726Z" style="fill:rgb(0,173,181);fill-rule:nonzero;"/>
        </g>
        <g transform="matrix(1.01587,0,0,1.01587,-299.84,-479.396)">
            <path d="M450,726L350,726C336.745,726 326,715.255 326,702L326,682L474,682L474,702C474,715.255 463.255,726 450,726Z" style="fill:rgb(71,77,87);fill-rule:nonzero;"/>
        </g>
        <g transform="matrix(1.01587,0,0,1.01587,-299.84,-479.396)">
            <path d="M436,580L364,580C352.954,580 344,571.046 344,560L344,506L456,506L456,560C456,571.046 447.046,580 436,580Z" style="fill:rgb(2,142,150);fill-rule:nonzero;"/>
        </g>
        <g transform="matrix(1.01587,0,0,1.01587,-299.84,-479.396)">
            <path d="M411.917,486L388.083,486C385.828,486 384,484.172 384,481.917L384,478.083C384,475.828 385.828,474 388.083,474L411.917,474C414.172,474 416,475.828 416,478.083L416,481.917C416,484.172 414.172,486 411.917,486Z" style="fill:rgb(72,77,87);fill-rule:nonzero;"/>
        </g>
        <g transform="matrix(1.01587,0,0,1.01587,-299.84,-479.396)">
            <path d="M474,692L474,572L490,572L490,676C490,684.837 482.837,692 474,692Z" style="fill:rgb(2,142,150);fill-rule:nonzero;"/>
        </g>
        <g transform="matrix(1.01587,0,0,1.01587,-299.84,-479.396)">
            <path d="M474,692L474,672L490,672L490,676C490,684.837 482.837,692 474,692Z" style="fill:rgb(50,56,65);fill-rule:nonzero;"/>
        </g>
        <g transform="matrix(1.01587,0,0,1.01587,-299.84,-479.396)">
            <path d="M326,692L326,572L310,572L310,676C310,684.837 317.163,692 326,692Z" style="fill:rgb(2,142,150);fill-rule:nonzero;"/>
        </g>
        <g transform="matrix(1.01587,0,0,1.01587,-299.84,-479.396)">
            <path d="M326,692L326,672L310,672L310,676C310,684.837 317.163,692 326,692Z" style="fill:rgb(50,56,65);fill-rule:nonzero;"/>
        </g>
        <g transform="matrix(1.01587,0,0,1.01587,-299.84,-479.396)">
            <rect x="362" y="506" width="16" height="132" style="fill:rgb(71,77,87);fill-rule:nonzero;"/>
        </g>
        <g transform="matrix(1.01587,0,0,1.01587,-299.84,-479.396)">
            <path d="M380,565L360,565C358.895,565 358,565.896 358,567L358,585C358,586.104 358.895,587 360,587L380,587C381.105,587 382,586.104 382,585L382,567C382,565.896 381.105,565 380,565ZM378,569L378,583L362,583L362,569L378,569Z" style="fill:rgb(238,238,238);fill-rule:nonzero;"/>
        </g>
        <g transform="matrix(1.01587,0,0,1.01587,-299.84,-479.396)">
            <rect x="422" y="506" width="16" height="132" style="fill:rgb(71,77,87);fill-rule:nonzero;"/>
        </g>
        <g transform="matrix(1.01587,0,0,1.01587,-299.84,-479.396)">
            <path d="M440,565L420,565C418.896,565 418,565.896 418,567L418,585C418,586.104 418.896,587 420,587L440,587C441.104,587 442,586.104 442,585L442,567C442,565.896 441.104,565 440,565ZM438,569L438,583L422,583L422,569L438,569Z" style="fill:rgb(238,238,238);fill-rule:nonzero;"/>
        </g>
        <g transform="matrix(1.01587,0,0,1.01587,-299.84,-479.396)">
            <path d="M450,705L350,705C342.268,705 336,698.732 336,691L336,639C336,631.268 342.268,625 350,625L450,625C457.732,625 464,631.268 464,639L464,691C464,698.732 457.732,705 450,705Z" style="fill:rgb(64,209,217);fill-rule:nonzero;"/>
        </g>
        <g transform="matrix(1.01587,0,0,1.01587,-299.84,-479.396)">
            <path d="M453,639.5L347,639.5C345.343,639.5 344,638.157 344,636.5C344,634.843 345.343,633.5 347,633.5L453,633.5C454.657,633.5 456,634.843 456,636.5C456,638.157 454.657,639.5 453,639.5Z" style="fill:rgb(90,97,107);fill-rule:nonzero;"/>
        </g>
        <g transform="matrix(1.01587,0,0,1.01587,-299.84,-479.396)">
            <path d="M350,649C348.343,649 347,647.657 347,646L347.802,638.779C347.915,637.766 348.771,637 349.79,637L350.21,637C351.229,637 352.085,637.766 352.198,638.779L353,646C353,647.657 351.657,649 350,649Z" style="fill:rgb(238,238,238);fill-rule:nonzero;"/>
        </g>
    </g>
</svg>
